HIERARCHY
ROOT Hips
{
	OFFSET 0.000000 0.000000 0.000000
	CHANNELS 6 Xposition Yposition Zposition Zrotation Xrotation Yrotation
	JOINT Spine1
	{
		OFFSET 0.000000 -0.000023 138.847351
		CHANNELS 6 Xposition Yposition Zposition Zrotation Xrotation Yrotation
		JOINT Neck
		{
			OFFSET 0.000000 -0.000018 110.694000
			CHANNELS 6 Xposition Yposition Zposition Zrotation Xrotation Yrotation
			JOINT Head
			{
				OFFSET 0.000000 -9.081811 70.384003
				CHANNELS 6 Xposition Yposition Zposition Zrotation Xrotation Yrotation
				End Site
				{
					OFFSET 0.000000 -0.000014 90.817780
				}
			}
		}
		JOINT LeftShoulder
		{
			OFFSET 18.288349 2.400605 89.379486
			CHANNELS 6 Xposition Yposition Zposition Zrotation Xrotation Yrotation
			JOINT LeftArm
			{
				OFFSET 65.257996 0.000000 0.000000
				CHANNELS 6 Xposition Yposition Zposition Zrotation Xrotation Yrotation
				JOINT LeftForeArm
				{
					OFFSET 127.960495 0.000000 0.000000
					CHANNELS 6 Xposition Yposition Zposition Zrotation Xrotation Yrotation
					JOINT LeftHand
					{
						OFFSET 118.922485 0.000000 0.000000
						CHANNELS 6 Xposition Yposition Zposition Zrotation Xrotation Yrotation
						End Site
						{
							OFFSET 68.113342 0.000000 0.000000
						}
					}
				}
			}
		}
		JOINT RightShoulder
		{
			OFFSET -18.036051 2.400605 89.379486
			CHANNELS 6 Xposition Yposition Zposition Zrotation Xrotation Yrotation
			JOINT RightArm
			{
				OFFSET -65.257996 0.000000 0.000000
				CHANNELS 6 Xposition Yposition Zposition Zrotation Xrotation Yrotation
				JOINT RightForeArm
				{
					OFFSET -127.960503 0.000000 0.000000
					CHANNELS 6 Xposition Yposition Zposition Zrotation Xrotation Yrotation
					JOINT RightHand
					{
						OFFSET -118.922516 0.000000 0.000000
						CHANNELS 6 Xposition Yposition Zposition Zrotation Xrotation Yrotation
						End Site
						{
							OFFSET -68.113342 0.000000 0.000000
						}
					}
				}
			}
		}
	}
	JOINT LeftUpLeg
	{
		OFFSET 45.409000 0.000000 0.000000
		CHANNELS 6 Xposition Yposition Zposition Zrotation Xrotation Yrotation
		JOINT LeftLeg
		{
			OFFSET 0.000000 0.000031 -190.974503
			CHANNELS 6 Xposition Yposition Zposition Zrotation Xrotation Yrotation
			JOINT LeftFoot
			{
				OFFSET 0.000000 0.000033 -200.215012
				CHANNELS 6 Xposition Yposition Zposition Zrotation Xrotation Yrotation
				JOINT LeftToeBase
				{
					OFFSET 0.000000 -68.113487 -29.515839
					CHANNELS 6 Xposition Yposition Zposition Zrotation Xrotation Yrotation
					End Site
					{
						OFFSET 0.000000 -18.163559 0.000000
					}
				}
			}
		}
	}
	JOINT RightUpLeg
	{
		OFFSET -45.409000 0.000000 0.000000
		CHANNELS 6 Xposition Yposition Zposition Zrotation Xrotation Yrotation
		JOINT RightLeg
		{
			OFFSET 0.000000 0.000031 -190.974503
			CHANNELS 6 Xposition Yposition Zposition Zrotation Xrotation Yrotation
			JOINT RightFoot
			{
				OFFSET 0.000000 0.000033 -200.215012
				CHANNELS 6 Xposition Yposition Zposition Zrotation Xrotation Yrotation
				JOINT RightToeBase
				{
					OFFSET 0.000000 -68.113487 -29.515839
					CHANNELS 6 Xposition Yposition Zposition Zrotation Xrotation Yrotation
					End Site
					{
						OFFSET 0.000000 -18.163559 0.000000
					}
				}
			}
		}
	}
}
MOTION
Frames: 4
Frame Time: 0.016667
-35.826847 -65.573517 359.148712 -0.621536 16.850734 -1.078031 0.000002 -0.000033 138.847366 -4.371894 -14.000905 -4.844053 0.000008 -0.000024 110.694000 4.063626 5.328002 -3.195301 -0.000007 -9.081787 70.384003 4.935535 2.391736 4.583144 18.288349 2.400595 89.379471 0.170649 -6.841332 -22.066449 65.257965 -0.000015 0.000025 -8.387617 -10.447518 8.610932 127.960510 -0.000010 0.000009 0.194240 -9.993146 0.424082 118.922470 0.000002 -0.000001 16.999810 -10.040682 -0.318156 -18.036053 2.400602 89.379440 -7.495228 -1.451188 16.518913 -65.258026 -0.000015 0.000047 18.861875 13.143913 -11.274890 -127.960503 -0.000024 -0.000084 84.554060 42.759136 40.149737 -118.922546 -0.000027 0.000044 1.952955 8.378063 34.217622 45.409004 0.000008 0.000040 14.667841 -39.133460 -22.176398 -0.000012 0.000030 -190.974487 11.146832 41.459262 10.327483 -0.000009 0.000048 -200.215057 18.556036 -4.029687 7.018729 0.000002 -68.113472 -29.515837 0.000000 -0.000001 -0.000001 -45.409008 -0.000006 0.000025 9.911428 -28.436062 38.864295 -0.000006 0.000033 -190.974518 -14.174102 40.462051 -27.241766 0.000023 0.000060 -200.215012 -26.011944 -13.584492 -12.911099 -0.000000 -68.113510 -29.515841 -0.000001 0.000001 -0.000001 
-35.831177 -65.576073 359.128174 -0.616781 16.852524 -1.075629 -0.000005 -0.000014 138.847336 -4.372858 -13.997412 -4.838635 0.000000 -0.000030 110.694031 4.068103 5.334946 -3.195168 -0.000012 -9.081794 70.383980 4.938373 2.373750 4.564614 18.288357 2.400601 89.379517 0.170672 -6.836306 -22.072093 65.257973 -0.000012 -0.000034 -8.382042 -10.428524 8.624459 127.960480 -0.000007 -0.000017 0.178245 -10.004594 0.413867 118.922523 0.000003 0.000036 17.011945 -10.049040 -0.297473 -18.036057 2.400599 89.379456 -7.493949 -1.457597 16.515032 -65.257996 -0.000011 -0.000001 18.853830 13.079338 -11.284486 -127.960480 -0.000023 -0.000009 84.628462 42.743993 40.057434 -118.922516 -0.000005 0.000043 1.968205 8.412272 34.193133 45.408997 0.000000 0.000024 14.654886 -39.139559 -22.181241 -0.000001 0.000045 -190.974503 11.143398 41.469015 10.320566 -0.000001 0.000027 -200.215027 18.553553 -4.043218 7.042881 0.000006 -68.113464 -29.515835 0.000000 -0.000001 -0.000003 -45.409000 0.000002 0.000000 9.867378 -28.468645 38.838126 0.000006 0.000033 -190.974503 -14.139103 40.473085 -27.222158 0.000004 0.000054 -200.215042 -25.987594 -13.604806 -12.909081 0.000016 -68.113480 -29.515839 0.000002 -0.000000 -0.000001 
-35.843678 -65.564667 359.123840 -0.618042 16.856581 -1.069772 0.000003 -0.000018 138.847351 -4.377166 -13.995562 -4.844126 0.000007 -0.000005 110.694077 4.070793 5.373143 -3.125469 -0.000004 -9.081794 70.384033 4.922896 2.289234 4.441458 18.288349 2.400618 89.379547 0.162183 -6.840500 -22.068100 65.257965 -0.000013 0.000004 -8.366211 -10.368591 8.647942 127.960510 0.000014 0.000098 0.146819 -10.065313 0.390986 118.922485 0.000021 -0.000040 17.003201 -10.116035 -0.341312 -18.036051 2.400612 89.379494 -7.478200 -1.469867 16.544275 -65.257988 -0.000019 -0.000044 18.846112 13.030486 -11.335527 -127.960495 -0.000054 -0.000066 84.684128 42.739642 39.986748 -118.922546 0.000005 0.000048 1.962360 8.444444 34.195888 45.409008 0.000006 0.000009 14.643130 -39.148189 -22.192038 -0.000016 0.000022 -190.974503 11.161815 41.474200 10.308937 -0.000009 0.000043 -200.215073 18.545878 -4.056109 7.072225 0.000010 -68.113487 -29.515839 -0.000001 -0.000000 0.000001 -45.408997 -0.000001 -0.000004 9.896125 -28.452739 38.856427 0.000017 0.000020 -190.974548 -14.151870 40.468584 -27.259720 -0.000003 0.000018 -200.215027 -26.010796 -13.609584 -12.860603 0.000010 -68.113480 -29.515837 0.000000 -0.000002 0.000000 
-35.868679 -65.557289 359.118073 -0.611829 16.858647 -1.063546 0.000001 -0.000025 138.847305 -4.389354 -13.996169 -4.852169 0.000003 -0.000028 110.694008 4.075094 5.387784 -3.113970 0.000004 -9.081816 70.384094 4.923970 2.273814 4.420843 18.288353 2.400605 89.379478 0.163982 -6.837439 -22.063396 65.258011 -0.000011 0.000023 -8.372321 -10.325597 8.664833 127.960495 0.000009 -0.000023 0.139441 -10.103483 0.378489 118.922508 -0.000001 0.000015 17.022320 -10.155691 -0.351348 -18.036049 2.400603 89.379517 -7.484659 -1.457110 16.528477 -65.258011 -0.000028 0.000006 18.853624 13.031208 -11.312944 -127.960503 -0.000034 -0.000039 84.647805 42.736057 40.022757 -118.922585 0.000020 0.000060 1.967233 8.426694 34.188935 45.409004 0.000011 0.000010 14.617421 -39.153694 -22.211697 0.000007 0.000033 -190.974487 11.161939 41.477662 10.311398 0.000010 0.000024 -200.215042 18.558406 -4.041735 7.027526 0.000007 -68.113487 -29.515833 -0.000003 -0.000004 -0.000003 -45.409004 -0.000001 -0.000002 9.875429 -28.458046 38.846370 0.000013 0.000016 -190.974518 -14.151514 40.466436 -27.277098 0.000020 0.000029 -200.215012 -26.020494 -13.609604 -12.896873 -0.000007 -68.113487 -29.515839 0.000000 -0.000001 -0.000001 
